# xmcd CD database file
#
# Track frame offsets:
#	150
#	21345
#	42234
#	61252
#	78118
#	99498
#	121373
#	146599
#	164353
#	185848
#	219604
#
# Disc length: 2932 seconds
#
# Revision: 0
# Processed by: cddbd v1.5.1PL0 Copyright (c) Steve Scherf et al.
# Submitted via: CDex 1.50
#
DISCID=980b720b
DTITLE=Orquesta Guayacan - Otra Cosa
DYEAR=2003
DGENRE=Salsa
TTITLE0=No Llores Por El
TTITLE1=Es Penoso
TTITLE2=Antes De Las Diez
TTITLE3=Voy Arracarte De Mi
TTITLE4=Mujeres Bonitas
TTITLE5=Son Zapateado
TTITLE6=Con El Mismo Golpe
TTITLE7=Perdona
TTITLE8=Vas A Llorar
TTITLE9=Vete
TTITLE10=Enhanced CD Track
EXTD=YEAR: 2003
EXTT0=
EXTT1=
EXTT2=
EXTT3=
EXTT4=
EXTT5=
EXTT6=
EXTT7=
EXTT8=
EXTT9=
EXTT10=
PLAYORDER=
